<svg xmlns="http://www.w3.org/2000/svg" viewBox="0 0 125.7 42.22"><defs><style>.cls-1{fill:#fff;}</style></defs><title>資產 1</title><g id="圖層_2" data-name="圖層 2"><g id="圖層_1-2" data-name="圖層 1"><path class="cls-1" d="M281.11,6.46h7.11c.09.63.18,1.46.27,2.1h-.24L288,7.8a1.56,1.56,0,0,0-1.47-1.11h-2.59v4.48h1.59a1.36,1.36,0,0,0,1.34-1.11L287,9.3h.24v4.06H287l-.15-.76a1.35,1.35,0,0,0-1.34-1.1h-1.59v4.07a.92.92,0,0,0,1,1h.48v.27h-4.28v-.27h.49a.91.91,0,0,0,1-1V7.7a.91.91,0,0,0-1-1h-.49Z" transform="translate(-227.72)"/><path class="cls-1" d="M293.35,6.73h-.48a.66.66,0,0,0-.69.69v8.29c0,.52.11.87,1.1.87h1.51a2.27,2.27,0,0,0,2-1.45l.1-.28h.23c-.09.56-.23,1.3-.33,1.85l0,.11h-7.18v-.27h.49a.66.66,0,0,0,.69-.69V7.42a.66.66,0,0,0-.69-.69h-.49V6.46h3.73Z" transform="translate(-227.72)"/><path class="cls-1" d="M301.5,6.73H301c-.46,0-.57.31-.28.76q1.38,2.21,2.75,4.41l2.17-4.41c.22-.45.07-.76-.39-.76h-.83V6.46H308v.27h-.55a1.43,1.43,0,0,0-1.18.76c-.89,1.6-1.78,3.22-2.66,4.84v3.24a.92.92,0,0,0,1,1H305v.27h-4.28v-.27h.48a.92.92,0,0,0,1-1v-3.2l-3.12-4.88a1.59,1.59,0,0,0-1.24-.76h-.21V6.46h3.86Z" transform="translate(-227.72)"/><path class="cls-1" d="M325.26,16.81h-3.73v-.27H322a.65.65,0,0,0,.69-.69V11.52h-4.62v4.33a.65.65,0,0,0,.69.69h.48v.27h-3.73v-.27H316a.66.66,0,0,0,.69-.69V7.42a.66.66,0,0,0-.69-.69h-.49V6.46h3.73v.27h-.48a.65.65,0,0,0-.69.69v3.75h4.62V7.42a.65.65,0,0,0-.69-.69h-.48V6.46h3.73v.27h-.49a.66.66,0,0,0-.69.69v8.43a.66.66,0,0,0,.69.69h.49Z" transform="translate(-227.72)"/><path class="cls-1" d="M330.22,16.81h-3.73v-.27H327a.66.66,0,0,0,.7-.69V7.42a.66.66,0,0,0-.7-.69h-.48V6.46h3.73v.27h-.48a.65.65,0,0,0-.69.69v8.43a.65.65,0,0,0,.69.69h.48Z" transform="translate(-227.72)"/><path class="cls-1" d="M340.35,6.47V9.52H340l-.13-.38A3.77,3.77,0,0,0,338.29,7a3.69,3.69,0,0,0-1.73-.37c-2.18,0-3.64,2-3.64,5s1.48,5,3.7,5c1.2,0,2-.54,2-1.37,0-.11,0-1.45,0-1.45a1.08,1.08,0,0,0-1.11-1.17h-.2v-.35h4v.35h-.2A1.08,1.08,0,0,0,340,13.83v2.33a8.33,8.33,0,0,0,1-.37l.1.21a10.69,10.69,0,0,1-4.7.95c-3,0-5-2.12-5-5.32s2-5.31,5-5.31a4.86,4.86,0,0,1,2.65.62c.49.3.87.22,1-.18a2.5,2.5,0,0,1,.07-.26Z" transform="translate(-227.72)"/><path class="cls-1" d="M352.35,16.81h-3.73v-.27h.48a.65.65,0,0,0,.69-.69V11.52h-4.62v4.33a.65.65,0,0,0,.69.69h.48v.27h-3.73v-.27h.49a.66.66,0,0,0,.69-.69V7.42a.66.66,0,0,0-.69-.69h-.49V6.46h3.73v.27h-.48a.65.65,0,0,0-.69.69v3.75h4.62V7.42a.65.65,0,0,0-.69-.69h-.48V6.46h3.73v.27h-.48a.66.66,0,0,0-.7.69v8.43a.66.66,0,0,0,.7.69h.48Z" transform="translate(-227.72)"/><path class="cls-1" d="M287.09,22h-.86c-.74,0-.92.49-.44,1.23,1.47,2.38,3,4.78,4.46,7.15l3.52-7.15c.36-.74.11-1.23-.63-1.23h-1.35V21.5h5.81V22h-.9a2.28,2.28,0,0,0-1.9,1.23c-1.46,2.6-2.89,5.22-4.33,7.85V36.3A1.49,1.49,0,0,0,292,37.87h.79v.45h-7v-.45h.79a1.49,1.49,0,0,0,1.57-1.57V31.1l-5.07-7.92a2.55,2.55,0,0,0-2-1.23h-.33V21.5h6.28Z" transform="translate(-227.72)"/><path class="cls-1" d="M307.22,21.27c5.09,0,8.48,3.46,8.48,8.64s-3.48,8.63-8.7,8.63c-4.82,0-8-3.45-8-8.63S302.27,21.27,307.22,21.27ZM307.11,38c3.68,0,6.15-3.23,6.15-8.07s-2.45-8.08-6.13-8.08c-3.43,0-5.71,3.23-5.71,8.08S303.7,38,307.11,38Z" transform="translate(-227.72)"/><path class="cls-1" d="M332.83,21.52v5h-.49c-.07-.18-.16-.45-.23-.63a5.21,5.21,0,0,0-5.42-4.06c-3.54,0-5.92,3.23-5.92,8.07s2.4,8.19,6,8.19c2,0,3.25-.88,3.29-2.22,0-.18,0-2.36,0-2.36a1.75,1.75,0,0,0-1.81-1.9h-.32V31h6.5v.56h-.31a1.75,1.75,0,0,0-1.82,1.9v3.79a15.11,15.11,0,0,0,1.57-.6L334,37a17.2,17.2,0,0,1-7.62,1.55c-4.87,0-8.12-3.45-8.12-8.63s3.27-8.64,8.16-8.64a8.06,8.06,0,0,1,4.31,1c.78.5,1.41.36,1.57-.29,0-.13.09-.29.11-.42Z" transform="translate(-227.72)"/><path class="cls-1" d="M336,38.29v-.56h.79a3.17,3.17,0,0,0,3-2.24c1.46-4.37,2.89-8.74,4.33-13.12a1.42,1.42,0,0,1-.07-.22c1.07-.16,1.75-.61,1.66-1.12H346q2.32,7.29,4.64,14.6a2.87,2.87,0,0,0,2.51,2.12h.32v.57h-7.33v-.57h.6a1.5,1.5,0,0,0,1.57-2.12l-1.12-3.57h-5.63l-1.16,3.7a1.47,1.47,0,0,0,1.59,2h.6v.57ZM347,31.45l-2.62-8.36-2.65,8.36Z" transform="translate(-227.72)"/><path class="cls-1" d="M246,17.62a11,11,0,0,0,12.51-9.71c1.28-8.84-9.18-10.82-11.22-3.12-1.8-4.64-9.59-5-10.75,1.3C235.69,10.33,239.78,16.93,246,17.62Zm1.76-6.44A3.83,3.83,0,0,0,249,8.63a7.92,7.92,0,0,1,2.1,4,3,3,0,0,1-.62,2.45,1.79,1.79,0,0,1-1.48.78,2.25,2.25,0,0,1-2.3-2.21A3.67,3.67,0,0,1,247.73,11.18Z" transform="translate(-227.72)"/><path class="cls-1" d="M267.42,16.14a5.38,5.38,0,0,0,.29-6.27c-1-2.17-4-3.18-6.7-2.35a14.2,14.2,0,0,1-9.48,11.18,11,11,0,0,0,5.22,7.54c5.95,3.75,14.34.49,14.33-4.71A5.56,5.56,0,0,0,267.42,16.14Z" transform="translate(-227.72)"/><path class="cls-1" d="M259.84,29.61c-3.41-.64-7.91-4.3-10.08-7.06-.93,5.89,1.08,12.55,5.05,16.27,2.43,2.31,6.92,1.61,8.36-1.06C265,34.3,263.55,30.53,259.84,29.61Z" transform="translate(-227.72)"/><polygon class="cls-1" points="10.19 31.49 10.19 31.49 10.19 31.49 10.19 31.49"/><path class="cls-1" d="M237.72,31.49h0Z" transform="translate(-227.72)"/><path class="cls-1" d="M249,34.87h0a5.83,5.83,0,0,0-.23-.58,26.47,26.47,0,0,1-.72-14.83c-2.7.5-8.1-1.25-10.63-3.76h0a5.62,5.62,0,1,0-4.89,9.41,5.62,5.62,0,0,0,5.83,9.6,5.62,5.62,0,1,0,10.91,1.9,5.45,5.45,0,0,0-.27-1.73Zm-11.07-6c0,.15,0,.3-.05.45l0,.21v.21a6.14,6.14,0,0,0,0,.86c0,.15,0,.3,0,.45a3.38,3.38,0,0,1,0,.45h-.57l-.19,0-.38-.07-.37-.09a6.84,6.84,0,0,1-.72-.25,2.63,2.63,0,0,1-.35-.15,2.79,2.79,0,0,1-.34-.18h0c-.13-.13-.25-.26-.37-.4l-.17-.21a.89.89,0,0,1-.14-.25,2.34,2.34,0,0,1-.17-.53,1.56,1.56,0,0,1,0-.57,1,1,0,0,1,.11-.28.51.51,0,0,1,.09-.13,1,1,0,0,1,.11-.1.54.54,0,0,1,.32-.11.81.81,0,0,1,.31.06,2.38,2.38,0,0,1,.49.3l.16.14c0-.05,0-.1,0-.14a1.86,1.86,0,0,1,.09-.47,2.35,2.35,0,0,1,.19-.43,1.16,1.16,0,0,1,.32-.38l.12-.08.06,0,.06,0a1.1,1.1,0,0,1,.26-.06,1,1,0,0,1,.51.11,1.29,1.29,0,0,1,.39.34.41.41,0,0,0,.07.11l.06.12a1.68,1.68,0,0,1,.07.24,2.67,2.67,0,0,1,0,.48C238,28.56,238,28.71,238,28.86Z" transform="translate(-227.72)"/></g></g></svg>